<svg width="80" height="80" viewBox="0 0 80 80" fill="none" xmlns="http://www.w3.org/2000/svg">
    <path
        d="M26.5705 13.2855H23.914C20.1936 13.2855 18.332 13.2855 16.911 14.0095C15.6611 14.6464 14.6456 15.6619 14.0087 16.9118C13.2847 18.3328 13.2847 20.1944 13.2847 23.9148V26.5713M26.5705 13.2855H53.1421M26.5705 13.2855V6.64258M53.1421 13.2855H55.7999C59.5203 13.2855 61.3779 13.2855 62.7989 14.0095C64.0488 14.6464 65.0677 15.6619 65.7046 16.9118C66.4279 18.3314 66.4279 20.1908 66.4279 23.9039V26.5713M53.1421 13.2855V6.64258M13.2847 26.5713V55.8007C13.2847 59.5211 13.2847 61.3803 14.0087 62.8013C14.6456 64.0512 15.6611 65.0685 16.911 65.7054C18.3306 66.4287 20.1899 66.4287 23.903 66.4287H55.8095C59.5226 66.4287 61.3792 66.4287 62.7989 65.7054C64.0488 65.0685 65.0677 64.0512 65.7046 62.8013C66.4279 61.3817 66.4279 59.525 66.4279 55.8119V26.5713M13.2847 26.5713H66.4279M53.1421 53.1429H53.1487L53.1486 53.1495L53.1421 53.1494V53.1429ZM39.8563 53.1429H39.8629L39.8628 53.1495L39.8563 53.1494V53.1429ZM26.5705 53.1429H26.5771L26.577 53.1495L26.5705 53.1494V53.1429ZM53.1486 39.8571V39.8637L53.1421 39.8636V39.8571H53.1486ZM39.8563 39.8571H39.8629L39.8628 39.8637L39.8563 39.8636V39.8571ZM26.5705 39.8571H26.5771L26.577 39.8637L26.5705 39.8636V39.8571Z"
        stroke="white" stroke-width="6.6429" stroke-linecap="round" stroke-linejoin="round" />
</svg>
