<svg width="68" height="68" viewBox="0 0 68 68" fill="none" xmlns="http://www.w3.org/2000/svg">
<rect width="68" height="68" rx="8" fill="#002853"/>
<path fill-rule="evenodd" clip-rule="evenodd" d="M25.9095 51.9616C25.9095 52.7675 26.2248 53.5403 26.786 54.1101C27.3472 54.6799 28.1083 55 28.9019 55C29.6956 55 30.4567 54.6799 31.0179 54.1101C31.5791 53.5403 31.8944 52.7675 31.8944 51.9616L31.8944 16.0384C31.8944 13.1193 28.2507 11.9106 26.5255 14.1977L17.8734 22.9825C17.3135 23.5526 16.9994 24.3249 17 25.13C17.0006 25.935 17.3158 26.7069 17.8765 27.2762C18.4371 27.8455 19.1974 28.1655 19.9903 28.1661C20.7831 28.1667 21.5439 27.8478 22.1053 27.2793L25.9095 23.4168L25.9095 51.9616ZM36.1056 16.0384L36.1056 51.9616C36.1056 54.8807 39.7493 56.0894 41.4745 53.8023L50.1266 45.0175C50.6865 44.4474 51.0006 43.6751 51 42.87C50.9994 42.065 50.6842 41.2931 50.1235 40.7238C49.5629 40.1545 48.8026 39.8345 48.0097 39.8339C47.2169 39.8333 46.4561 40.1522 45.8947 40.7207L42.0905 44.5832L42.0905 16.0384C42.0905 15.2325 41.7752 14.4597 41.214 13.8899C40.6528 13.3201 39.8917 13 39.098 13C38.3044 13 37.5433 13.3201 36.9821 13.8899C36.4209 14.4597 36.1056 15.2325 36.1056 16.0384Z" fill="white"/>
<path fill-rule="evenodd" clip-rule="evenodd" d="M36 16.0386L36 51.9649C36 54.8842 39.6695 56.093 41.407 53.8057L50.1204 45.0202C50.6842 44.4501 51.0006 43.6776 51 42.8725C50.9994 42.0674 50.6819 41.2954 50.1173 40.7261C49.5527 40.1568 48.787 39.8367 47.9885 39.8361C47.19 39.8355 46.4239 40.1545 45.8585 40.723L42.0273 44.5858L42.0273 16.0386C42.0273 15.2327 41.7098 14.4598 41.1447 13.89C40.5795 13.3201 39.8129 13 39.0137 13C38.2144 13 37.4479 13.3201 36.8827 13.89C36.3175 14.4598 36 15.2327 36 16.0386Z" fill="white"/>
</svg>
