<svg width="80" height="80" viewBox="0 0 80 80" fill="none" xmlns="http://www.w3.org/2000/svg">
    <path
        d="M22.9211 26.894H58.7928M22.9211 26.894C21.0609 26.894 20.1285 26.894 19.418 27.2561C18.793 27.5745 18.2853 28.0822 17.9668 28.7072C17.6048 29.4177 17.6048 30.3485 17.6048 32.2087V49.4802C17.6048 53.2006 17.6048 55.0611 18.3289 56.4821C18.9657 57.7321 19.9812 58.7484 21.2312 59.3852C22.6508 60.1086 24.5101 60.1086 28.2232 60.1086H53.4856C57.1987 60.1086 59.0553 60.1086 60.4749 59.3852C61.7249 58.7484 62.7449 57.7319 63.3818 56.4819C64.1051 55.0623 64.1051 53.2053 64.1051 49.4922V32.1786C64.1052 30.3384 64.1052 29.4139 63.7451 28.7072C63.4267 28.0822 62.9166 27.5745 62.2916 27.2561C61.5811 26.894 60.653 26.894 58.7928 26.894M22.9211 26.894H17.5228C14.7026 26.894 13.2933 26.894 12.4929 26.401C11.4248 25.7431 10.8192 24.5385 10.9262 23.2885C11.0066 22.3511 11.846 21.2173 13.5276 18.9471C14.014 18.2905 14.2572 17.9621 14.5549 17.7114C14.9519 17.3771 15.423 17.1397 15.9279 17.0197C16.3066 16.9297 16.713 16.9297 17.5302 16.9297H64.1779C64.9951 16.9297 65.4027 16.9297 65.7813 17.0197C66.2863 17.1397 66.7572 17.3771 67.1541 17.7114C67.4518 17.9621 67.696 18.289 68.1824 18.9456C69.864 21.2158 70.7048 22.3509 70.7851 23.2883C70.8922 24.5383 70.2844 25.7431 69.2162 26.401C68.4158 26.894 67.0032 26.894 64.183 26.894H58.7928M34.2121 43.5013H47.4979"
        stroke="white" stroke-width="6.6429" stroke-linecap="round" stroke-linejoin="round" />
</svg>
