<svg width="55" height="55" viewBox="0 0 55 55" fill="none" xmlns="http://www.w3.org/2000/svg">
    <path
        d="M52.8612 22.0081L50.0273 21.5353C48.577 21.2923 47.3668 20.3214 46.7889 18.9345L46.781 18.9154C46.7665 18.8802 46.7512 18.8446 46.7359 18.8094C46.1525 17.4188 46.3181 15.8704 47.1797 14.6635L48.791 12.4047C49.268 11.736 49.1918 10.8206 48.6113 10.2402L43.868 5.49561C43.2871 4.91475 42.3713 4.83857 41.7027 5.31634L39.3639 6.98647C38.1662 7.84058 36.6306 8.01198 35.2482 7.4423L35.1398 7.39758C33.7263 6.82459 32.7356 5.60698 32.4909 4.14013L32.0338 1.40392C31.898 0.593695 31.1971 0 30.3757 0H23.6658C22.8444 0 22.1431 0.593695 22.0077 1.40433L21.5353 4.23825C21.2923 5.68854 20.321 6.8987 18.9332 7.47708L18.9138 7.48536C18.879 7.49985 18.8442 7.51434 18.8099 7.52966C17.4192 8.113 15.8704 7.94781 14.6631 7.08625L12.4042 5.47491C11.7356 4.99797 10.8206 5.07373 10.2398 5.65459L5.49561 10.3979C4.91433 10.9788 4.83857 11.8946 5.31593 12.5632L6.98606 14.9024C7.84016 16.0997 8.01157 17.6353 7.44147 19.0185L7.39758 19.1262C6.82418 20.54 5.60656 21.5303 4.14013 21.775L1.4035 22.2321C0.593695 22.3675 0 23.0684 0 23.8898V30.5997C0 31.4211 0.593695 32.1224 1.40433 32.2574L4.23825 32.7302C5.68854 32.9732 6.8987 33.9441 7.47666 35.331L7.48453 35.3501C7.49902 35.3853 7.51434 35.4209 7.52966 35.4561C8.113 36.8467 7.94739 38.3952 7.08583 39.602L5.47449 41.8609C4.99755 42.5295 5.07373 43.4449 5.65418 44.0253L10.3975 48.7699C10.978 49.3508 11.8942 49.4265 12.5628 48.9492L14.9016 47.279C16.0993 46.4254 17.6349 46.2535 19.0173 46.8232L19.1257 46.8679C20.5392 47.4409 21.5299 48.6585 21.7746 50.1254L22.2317 52.8616C22.3671 53.6718 23.068 54.2655 23.8894 54.2655H30.5993C31.4211 54.2655 32.1224 53.6718 32.2574 52.8612L32.7302 50.0273C32.9728 48.577 33.9441 47.3668 35.3319 46.7884L35.3517 46.7802C35.3861 46.7657 35.4209 46.7512 35.4552 46.7359C36.8463 46.1525 38.3952 46.3177 39.602 47.1793L41.8609 48.7906C42.5295 49.2676 43.4449 49.1914 44.0253 48.6109L48.7699 43.8676C49.3508 43.2867 49.4265 42.3709 48.9492 41.7023L47.279 39.3631C46.4249 38.1658 46.2535 36.6302 46.8236 35.247L46.8679 35.1394C47.4409 33.7255 48.6585 32.7352 50.1254 32.4905L52.8616 32.0334C53.6718 31.898 54.2655 31.1971 54.2655 30.3753V23.6658C54.2655 22.8444 53.6718 22.1431 52.8612 22.0081ZM27.1328 41.2485C23.5164 41.2485 19.9 39.8719 17.1468 37.1188C11.6404 31.6124 11.6404 22.6531 17.1468 17.1468C22.6531 11.6404 31.6124 11.6404 37.1188 17.1468C42.6251 22.6531 42.6251 31.6124 37.1188 37.1188C34.3656 39.8719 30.7492 41.2485 27.1328 41.2485Z"
        fill="white" />
</svg>
