<svg width="40" height="49" viewBox="0 0 40 49" fill="none" xmlns="http://www.w3.org/2000/svg">
    <path
        d="M4 26.293C2.93913 26.293 1.92172 26.6893 1.17157 27.3949C0.421427 28.1004 0 29.0573 0 30.0551V44.5309C0 45.5287 0.421427 46.4856 1.17157 47.1911C1.92172 47.8966 2.93913 48.293 4 48.293C5.06087 48.293 6.07828 47.8966 6.82843 47.1911C7.57857 46.4856 8 45.5287 8 44.5309V30.0551C8 29.0573 7.57857 28.1004 6.82843 27.3949C6.07828 26.6893 5.06087 26.293 4 26.293Z"
        fill="white" />
    <path
        d="M14.5 10.293C13.5717 10.293 12.6815 10.6995 12.0251 11.4232C11.3687 12.1468 11 13.1283 11 14.1517V44.4342C11 45.4576 11.3687 46.4391 12.0251 47.1628C12.6815 47.8864 13.5717 48.293 14.5 48.293C15.4283 48.293 16.3185 47.8864 16.9749 47.1628C17.6312 46.4391 18 45.4576 18 44.4342V14.1517C18 13.1283 17.6312 12.1468 16.9749 11.4232C16.3185 10.6995 15.4283 10.293 14.5 10.293Z"
        fill="white" />
    <path
        d="M36.5 0.292969C35.5717 0.292969 34.6815 0.699511 34.0251 1.42316C33.3687 2.14681 33 3.12829 33 4.15169V44.4342C33 45.4576 33.3687 46.4391 34.0251 47.1628C34.6815 47.8864 35.5717 48.293 36.5 48.293C37.4283 48.293 38.3185 47.8864 38.9749 47.1628C39.6312 46.4391 40 45.4576 40 44.4342V4.15169C40 3.12829 39.6312 2.14681 38.9749 1.42316C38.3185 0.699511 37.4283 0.292969 36.5 0.292969Z"
        fill="white" />
    <path
        d="M25 18.293C23.9391 18.293 22.9217 18.6957 22.1716 19.4126C21.4214 20.1295 21 21.1018 21 22.1157V44.4703C21 45.4841 21.4214 46.4564 22.1716 47.1733C22.9217 47.8902 23.9391 48.293 25 48.293C26.0609 48.293 27.0783 47.8902 27.8284 47.1733C28.5786 46.4564 29 45.4841 29 44.4703V22.1157C29 21.1018 28.5786 20.1295 27.8284 19.4126C27.0783 18.6957 26.0609 18.293 25 18.293Z"
        fill="white" />
</svg>
